<svg id="visual" viewBox="0 0 900 75" width="900" height="75" xmlns="http://www.w3.org/2000/svg" xmlns:xlink="http://www.w3.org/1999/xlink" version="1.1"><rect x="0" y="0" width="900" height="75" fill="#dacbbb"></rect><path d="M0 36L16.7 33.5C33.3 31 66.7 26 100 24.5C133.3 23 166.7 25 200 27.5C233.3 30 266.7 33 300 37.3C333.3 41.7 366.7 47.3 400 45.8C433.3 44.3 466.7 35.7 500 30C533.3 24.3 566.7 21.7 600 23.7C633.3 25.7 666.7 32.3 700 38.5C733.3 44.7 766.7 50.3 800 50.8C833.3 51.3 866.7 46.7 883.3 44.3L900 42L900 76L883.3 76C866.7 76 833.3 76 800 76C766.7 76 733.3 76 700 76C666.7 76 633.3 76 600 76C566.7 76 533.3 76 500 76C466.7 76 433.3 76 400 76C366.7 76 333.3 76 300 76C266.7 76 233.3 76 200 76C166.7 76 133.3 76 100 76C66.7 76 33.3 76 16.7 76L0 76Z" fill="#090929" stroke-linecap="round" stroke-linejoin="miter"></path></svg>